<?xml version="1.0" encoding="UTF-8" standalone="no"?>
<svg
   version="1.1"
   viewBox="0 0 22 22"
   id="svg6"
   sodipodi:docname="jwm-blue.svg"
   width="22"
   height="22"
   inkscape:version="1.1.2 (0a00cf5339, 2022-02-04, custom)"
   inkscape:export-filename="/home/ruivlea/.icons/apps/22/jwm-blue.png"
   inkscape:export-xdpi="96"
   inkscape:export-ydpi="96"
   xmlns:inkscape="http://www.inkscape.org/namespaces/inkscape"
   xmlns:sodipodi="http://sodipodi.sourceforge.net/DTD/sodipodi-0.dtd"
   xmlns="http://www.w3.org/2000/svg"
   xmlns:svg="http://www.w3.org/2000/svg">
  <defs
     id="defs10" />
  <sodipodi:namedview
     id="namedview8"
     pagecolor="#505050"
     bordercolor="#ffffff"
     borderopacity="1"
     inkscape:pageshadow="0"
     inkscape:pageopacity="0"
     inkscape:pagecheckerboard="1"
     showgrid="false"
     inkscape:zoom="16.854167"
     inkscape:cx="2.0766378"
     inkscape:cy="20.796044"
     inkscape:window-width="1912"
     inkscape:window-height="1029"
     inkscape:window-x="0"
     inkscape:window-y="0"
     inkscape:window-maximized="1"
     inkscape:current-layer="svg6" />
  <g
     id="g14"
     transform="matrix(0.23747742,0,0,0.23747742,-0.94990987,5.3005419)">
    <path
       fill="#aaaaaa"
       d="m 12,30 a 6,5 0 0 0 12,0 V 0 L 42,24 48,0 66,24 72,0 H 84 L 72,48 54,24 48,48 36,36 A 17.088007,8.5440051 0 0 1 4,42"
       id="path2" />
    <path
       fill="#0077cc"
       stroke="#000000"
       d="M 24,0 H 36 L 48,48 H 36 Z M 48,0 H 60 L 72,48 H 60 Z M 72,0 H 84 L 96,48 H 84 Z"
       id="path4" />
  </g>
</svg>
